<?xml version="1.0" standalone="no"?>
<!DOCTYPE svg PUBLIC "-//W3C//DTD SVG 20010904//EN"
 "http://www.w3.org/TR/2001/REC-SVG-20010904/DTD/svg10.dtd">
<svg version="1.0" xmlns="http://www.w3.org/2000/svg"
 width="408.000000pt" height="50.000000pt" viewBox="0 0 408.000000 50.000000"
 preserveAspectRatio="xMidYMid meet">

<g transform="translate(0.000000,50.000000) scale(0.100000,-0.100000)"
fill="#999999" stroke="none">
<path d="M262 481 c-61 -21 -97 -50 -83 -64 7 -7 27 -2 60 16 31 17 64 27 91
27 27 0 60 -10 91 -27 35 -18 53 -23 60 -16 15 15 -33 50 -94 68 -62 18 -60
18 -125 -4z"/>
<path d="M1871 480 c-45 -11 -82 -39 -104 -81 -15 -28 -17 -54 -15 -156 3
-104 6 -126 24 -150 79 -108 283 -72 296 52 3 28 1 30 -34 33 -33 3 -38 0 -38
-18 0 -59 -91 -91 -144 -49 -26 20 -26 22 -26 144 0 122 0 124 26 144 53 42
144 10 144 -49 0 -18 5 -21 38 -18 35 3 37 5 34 33 -8 79 -110 137 -201 115z"/>
<path d="M2262 475 c-91 -28 -116 -83 -111 -242 4 -94 7 -112 27 -141 66 -93
215 -89 279 8 21 30 23 45 23 155 0 110 -2 125 -23 155 -42 63 -119 89 -195
65z m115 -79 c28 -24 28 -25 28 -141 0 -116 0 -117 -28 -141 -38 -32 -90 -32
-122 1 -24 23 -25 30 -25 140 0 110 1 117 25 140 32 33 84 33 122 1z"/>
<path d="M3437 476 c-89 -32 -107 -71 -107 -224 0 -107 2 -122 23 -152 69
-104 230 -98 285 10 18 37 22 60 22 145 0 85 -4 108 -22 145 -36 69 -126 103
-201 76z m118 -81 c24 -23 25 -30 25 -140 0 -110 -1 -117 -25 -140 -32 -33
-84 -33 -122 -1 -28 24 -28 25 -28 141 0 116 0 117 28 141 38 32 90 32 122 -1z"/>
<path d="M894 467 c-2 -7 -3 -107 -2 -222 l3 -210 38 -3 37 -3 0 225 0 226
-35 0 c-20 0 -38 -6 -41 -13z"/>
<path d="M1070 255 l0 -227 113 4 c183 6 207 32 207 223 0 191 -24 217 -207
223 l-113 4 0 -227z m221 139 c17 -15 19 -31 19 -137 0 -151 -4 -157 -102
-157 l-68 0 0 153 c0 85 3 157 8 161 13 14 122 -1 143 -20z"/>
<path d="M2542 448 c3 -33 3 -33 66 -36 l62 -3 0 -189 0 -190 35 0 35 0 0 190
0 190 65 0 65 0 0 35 0 35 -166 0 -165 0 3 -32z"/>
<path d="M2940 445 l0 -35 60 0 60 0 0 -191 0 -190 38 3 37 3 3 187 2 187 63
3 c62 3 62 3 62 33 l0 30 -162 3 -163 2 0 -35z"/>
<path d="M3750 475 c0 -3 -1 -103 -1 -222 l0 -218 35 -3 35 -3 3 153 3 153 94
-153 c91 -147 95 -152 127 -152 l34 0 0 225 0 225 -35 0 -34 0 -3 -152 -3
-153 -95 152 c-91 146 -96 153 -127 153 -18 0 -33 -2 -33 -5z"/>
<path d="M275 439 c-47 -14 -71 -37 -57 -51 10 -10 19 -8 41 5 16 9 48 17 71
17 23 0 55 -8 71 -17 22 -13 31 -15 41 -5 15 15 -11 37 -62 52 -41 12 -64 12
-105 -1z"/>
<path d="M272 386 c-20 -11 -21 -14 -9 -25 12 -9 21 -9 41 0 20 10 32 10 52 0
20 -9 29 -9 41 0 12 11 11 14 -9 25 -13 8 -39 13 -58 13 -19 0 -45 -5 -58 -13z"/>
<path d="M106 370 c-39 -12 -83 -56 -97 -97 -22 -68 32 -152 107 -168 l29 -6
-30 14 c-80 37 -107 121 -62 188 21 32 39 44 97 67 21 9 22 11 5 10 -11 0 -33
-4 -49 -8z"/>
<path d="M510 368 c58 -23 76 -35 97 -67 45 -67 18 -151 -62 -188 l-30 -14 29
6 c75 16 129 100 107 168 -15 43 -58 85 -102 97 -44 13 -71 12 -39 -2z"/>
<path d="M305 254 c-12 -25 -16 -52 -13 -85 l5 -48 -29 24 c-26 22 -84 45
-115 45 -25 0 -13 -33 25 -71 25 -25 54 -42 85 -50 42 -10 47 -14 47 -40 0
-22 5 -29 20 -29 15 0 20 7 20 29 0 26 5 30 47 40 31 8 60 25 85 50 38 38 50
71 26 71 -32 0 -90 -23 -116 -45 l-29 -24 5 48 c4 47 -19 121 -38 121 -4 0
-15 -16 -25 -36z"/>
<path d="M1467 254 c-4 -4 -7 -20 -7 -36 l0 -28 111 0 110 0 -3 33 -3 32 -101
3 c-55 1 -103 0 -107 -4z"/>
</g>
</svg>
